<?xml version="1.0" standalone="no"?>
<!DOCTYPE svg PUBLIC "-//W3C//DTD SVG 20010904//EN"
 "http://www.w3.org/TR/2001/REC-SVG-20010904/DTD/svg10.dtd">
<svg version="1.0" xmlns="http://www.w3.org/2000/svg"
 width="512.000000pt" height="512.000000pt" viewBox="0 0 512.000000 512.000000"
 preserveAspectRatio="xMidYMid meet">

<g transform="translate(0.000000,512.000000) scale(0.100000,-0.100000)"
fill="#000000" stroke="none">
<path d="M2160 4776 c-190 -79 -538 -223 -775 -320 -435 -180 -1001 -421
-1119 -476 -50 -24 -65 -36 -70 -58 -12 -49 -25 -961 -25 -1788 -1 -759 0
-813 17 -833 22 -27 1300 -629 2032 -958 140 -63 262 -123 270 -133 8 -11 29
-24 47 -31 29 -10 44 -5 190 64 370 175 1254 601 1716 827 425 207 498 247
504 268 7 30 -13 990 -32 1492 -8 206 -17 488 -20 625 -3 138 -8 276 -11 308
-5 52 -3 57 15 57 24 0 61 45 61 75 0 44 -3 46 -450 242 -260 114 -343 149
-760 320 -195 80 -463 190 -595 245 -327 137 -527 218 -534 218 -22 -1 886
-453 1849 -922 l225 -109 -170 -75 c-93 -42 -325 -143 -515 -226 -190 -82
-588 -260 -886 -394 -297 -134 -546 -244 -553 -244 -7 0 -281 121 -609 269
-569 256 -924 413 -1332 589 l-184 80 218 106 c121 58 220 106 222 106 1 0
297 146 656 324 648 320 992 496 973 495 -5 0 -165 -65 -355 -143z m2706
-1268 c-4 -161 -11 -399 -17 -528 -19 -473 -39 -1140 -39 -1330 0 -107 -3
-205 -6 -216 -3 -13 -21 -28 -42 -36 -62 -25 -957 -436 -1533 -704 -300 -140
-548 -254 -551 -254 -2 0 -8 413 -11 917 -4 505 -10 1028 -14 1163 l-6 246
454 208 c733 337 1624 752 1715 800 27 14 51 25 53 26 2 0 1 -132 -3 -292z
m-4036 31 c267 -126 748 -352 1070 -500 l585 -270 -3 -1177 c-2 -647 -5 -1178
-6 -1180 -2 -1 -136 63 -299 143 -239 117 -1141 549 -1714 821 l-113 54 0
1108 c0 610 -3 1137 -6 1171 -4 33 -5 61 -2 61 2 0 222 -104 488 -231z"/>
</g>
</svg>
